<svg
  width="512"
  height="512"
  viewBox="0 0 512 512"
  fill="none"
  xmlns="http://www.w3.org/2000/svg"
>
  <defs>
    <linearGradient id="bg" x1="88" y1="72" x2="420" y2="440" gradientUnits="userSpaceOnUse">
      <stop offset="0" stop-color="#FCF8F1" />
      <stop offset="1" stop-color="#F0E3D1" />
    </linearGradient>
    <linearGradient id="slash" x1="244" y1="188" x2="284" y2="328" gradientUnits="userSpaceOnUse">
      <stop offset="0" stop-color="#DA8A4A" />
      <stop offset="1" stop-color="#B7652A" />
    </linearGradient>
    <filter
      id="shadow"
      x="20"
      y="24"
      width="472"
      height="472"
      filterUnits="userSpaceOnUse"
      color-interpolation-filters="sRGB"
    >
      <feFlood flood-opacity="0" result="BackgroundImageFix" />
      <feColorMatrix
        in="SourceAlpha"
        type="matrix"
        values="0 0 0 0 0 0 0 0 0 0 0 0 0 0 0 0 0 0 127 0"
        result="hardAlpha"
      />
      <feOffset dy="18" />
      <feGaussianBlur stdDeviation="18" />
      <feComposite in2="hardAlpha" operator="out" />
      <feColorMatrix
        type="matrix"
        values="0 0 0 0 0.286275 0 0 0 0 0.207843 0 0 0 0 0.121569 0 0 0 0.16 0"
      />
      <feBlend mode="normal" in2="BackgroundImageFix" result="effect1_dropShadow_1_1" />
      <feBlend mode="normal" in="SourceGraphic" in2="effect1_dropShadow_1_1" result="shape" />
    </filter>
  </defs>

  <g filter="url(#shadow)">
    <rect x="56" y="52" width="400" height="400" rx="116" fill="url(#bg)" />
    <rect
      x="57"
      y="53"
      width="398"
      height="398"
      rx="115"
      stroke="#E3D4C3"
      stroke-opacity="0.9"
      stroke-width="2"
    />
  </g>

  <g stroke="#2E241B" stroke-width="28" stroke-linecap="round" stroke-linejoin="round">
    <path d="M212 166H192C164.386 166 142 188.386 142 216V296C142 323.614 164.386 346 192 346H212" />
    <path d="M300 166H320C347.614 166 370 188.386 370 216V296C370 323.614 347.614 346 320 346H300" />
  </g>

  <rect x="238" y="182" width="36" height="148" rx="18" transform="rotate(20 238 182)" fill="url(#slash)" />
</svg>
